<?xml version="1.0" standalone="no"?>
<!DOCTYPE svg PUBLIC "-//W3C//DTD SVG 20010904//EN"
 "http://www.w3.org/TR/2001/REC-SVG-20010904/DTD/svg10.dtd">
<svg version="1.0" xmlns="http://www.w3.org/2000/svg"
 width="316.000000pt" height="316.000000pt" viewBox="0 0 316.000000 316.000000"
 preserveAspectRatio="xMidYMid meet">
<metadata>
Created by potrace 1.14, written by Peter Selinger 2001-2017
</metadata>
<g transform="translate(0.000000,316.000000) scale(0.100000,-0.100000)"
fill="#000000" stroke="none">
<path d="M0 1580 l0 -1580 1580 0 1580 0 0 1580 0 1580 -1580 0 -1580 0 0
-1580z m508 853 c15 -11 35 -35 44 -54 17 -31 18 -84 18 -657 0 -690 -2 -668
64 -715 30 -21 41 -22 323 -27 275 -5 293 -6 320 -26 34 -25 63 -79 63 -119 0
-43 -30 -96 -69 -122 -34 -23 -35 -23 -417 -23 -361 0 -386 1 -438 20 -64 24
-122 83 -131 132 -3 18 -5 371 -3 784 3 736 3 752 23 774 40 45 77 61 128 57
27 -2 61 -13 75 -24z m1298 -4 c50 -46 54 -70 54 -321 0 -215 2 -236 20 -266
11 -18 34 -41 52 -52 31 -19 51 -20 313 -20 262 0 282 1 313 20 18 11 41 34
52 52 18 31 20 51 20 271 0 199 3 245 16 273 46 96 194 101 255 8 18 -28 19
-62 19 -815 l0 -786 -23 -34 c-26 -39 -79 -69 -122 -69 -43 0 -105 39 -126 80
-17 31 -19 61 -19 318 0 316 0 316 -68 362 -35 25 -37 25 -311 28 -309 3 -323
0 -368 -67 -23 -33 -23 -39 -23 -314 0 -260 -1 -284 -20 -322 -51 -105 -180
-111 -254 -11 -21 27 -21 38 -24 789 -2 419 0 776 3 794 7 36 48 90 79 104 12
5 47 7 78 6 45 -3 64 -9 84 -28z"/>
</g>
</svg>
